<svg width="149" height="32" fill="none" xmlns="http://www.w3.org/2000/svg"><path d="M43.242 20.293c0 .423-.09.797-.269 1.125a1.86 1.86 0 01-.756.762c-.33.18-.698.269-1.12.269H39V25.5h2.54c.955 0 1.812-.214 2.574-.642a4.679 4.679 0 001.792-1.773c.433-.752.652-1.598.652-2.544V10.509h-3.316v9.784zm8.928-.911h6.946v-2.804H52.17v-3.181h7.678v-2.888h-10.91v14.987h11.124v-2.888H52.17v-3.226zm8.932-5.9h4.442v12.01h3.316v-12.01h4.421v-2.973H61.097v2.977l.005-.005zm23.512 4.5a3.94 3.94 0 00-.837-.323c.224-.065.438-.144.638-.244a3.18 3.18 0 001.29-1.195c.308-.513.467-1.1.467-1.768 0-.761-.209-1.444-.622-2.046-.413-.598-.996-1.066-1.743-1.404-.747-.334-1.603-.503-2.56-.503h-6.656v14.987h6.786c1.006 0 1.902-.174 2.694-.528.787-.353 1.4-.841 1.837-1.473.433-.628.653-1.345.653-2.151 0-.742-.17-1.405-.513-1.992a3.525 3.525 0 00-1.43-1.364l-.004.005zm-6.802-4.959h2.943c.408 0 .767.075 1.08.22.314.144.558.353.732.627.175.269.264.587.264.95 0 .364-.09.708-.264.992a1.726 1.726 0 01-.732.652 2.41 2.41 0 01-1.08.229h-2.943v-3.675.005zm5.069 9.067c-.19.284-.458.503-.802.658a2.908 2.908 0 01-1.195.229h-3.072v-3.844h3.072c.444 0 .837.084 1.185.249.344.164.618.393.807.692.19.299.289.637.289 1.02 0 .384-.095.712-.284.996zm14.798-2.654c.831-.398 1.474-.96 1.932-1.683.458-.721.687-1.558.687-2.514 0-.956-.224-1.763-.672-2.48-.448-.716-1.086-1.27-1.907-1.662-.822-.394-1.773-.588-2.858-.588h-6.563v14.987h3.321V20.04h2.161l3.043 5.457h3.789l-3.426-5.86c.17-.06.339-.125.498-.2h-.005zm-1.076-3.062a1.798 1.798 0 01-.791.722c-.344.17-.747.254-1.21.254h-2.988v-4.147h2.988c.463 0 .866.084 1.21.249.343.164.607.408.791.717.185.308.28.677.28 1.095 0 .418-.095.787-.28 1.1v.01zM106.9 10.51l-5.352 14.987h3.371l1.06-3.306h5.557l1.135 3.306h3.306l-5.482-14.987H106.9zm-.169 9.171l1.723-5.287.204-.961.204.96 1.842 5.288h-3.973zm10.347 5.816h3.425V10.51h-3.425v14.987zm15.51-4.85L126.14 10.51h-3.232v14.987h3.027V15.36l6.414 10.137h3.266V10.51h-3.027v10.137zm15.763-1.678a4.466 4.466 0 00-1.364-1.568 4.95 4.95 0 00-2.011-.846l-2.55-.523c-.398-.095-.717-.26-.951-.498a1.228 1.228 0 01-.353-.891c0-.324.084-.603.259-.842.169-.239.413-.423.722-.558.308-.134.667-.199 1.075-.199.408 0 .777.07 1.091.21.313.139.557.333.731.587.175.254.264.538.264.861h3.321c-.019-.871-.263-1.643-.722-2.31-.458-.672-1.1-1.195-1.916-1.573-.817-.379-1.753-.568-2.799-.568-1.045 0-1.971.194-2.783.588-.812.393-1.449.936-1.902 1.633-.453.697-.682 1.488-.682 2.38 0 .722.144 1.374.438 1.951a3.954 3.954 0 001.24 1.45 4.906 4.906 0 001.862.801l2.699.558c.443.104.791.299 1.05.577.259.28.384.623.384 1.041 0 .334-.095.637-.284.901a1.826 1.826 0 01-.792.613c-.338.144-.737.214-1.195.214-.458 0-.891-.08-1.265-.24a1.94 1.94 0 01-.866-.686 1.72 1.72 0 01-.309-1.021h-3.321c.015.936.264 1.757.757 2.474.488.712 1.16 1.27 2.017 1.668.856.399 1.837.598 2.942.598 1.106 0 2.101-.204 2.958-.612.861-.409 1.528-.971 2.011-1.688.483-.717.722-1.529.722-2.435a4.4 4.4 0 00-.488-2.052l.01.005z" fill="#fff"/><path d="M10.17 1.83l-8.34 8.34A6.252 6.252 0 000 14.59V29.5A2.5 2.5 0 002.5 32h14.91a6.26 6.26 0 004.42-1.83l8.34-8.34A6.252 6.252 0 0032 17.41V2.5A2.5 2.5 0 0029.5 0H14.59a6.26 6.26 0 00-4.42 1.83z" fill="url(#paint0_linear_10685_35128)"/><path d="M24 8H4v20h20V8z" fill="#000"/><path d="M15 23.5H6.5v2H15v-2z" fill="#fff"/><defs><linearGradient id="paint0_linear_10685_35128" x1=".425" y1="31.36" x2="31.31" y2=".905" gradientUnits="userSpaceOnUse"><stop stop-color="#FF9419"/><stop offset=".43" stop-color="#FF021D"/><stop offset=".99" stop-color="#E600FF"/></linearGradient></defs></svg>